<svg  preserveAspectRatio="none"  viewBox="0 0 339 275" fill="none" xmlns="http://www.w3.org/2000/svg">
<path d="M340 0H0V275H340V0Z" fill="#00A4C7"/>
<path opacity="0.202241" fill-rule="evenodd" clip-rule="evenodd" d="M0 89H18C21.314 89 24 86.314 24 83C24 79.686 21.314 77 18 77H0V89Z" fill="white"/>
<path opacity="0.202241" d="M125.43 108H108.43C105.116 108 102.43 110.686 102.43 114C102.43 117.314 105.116 120 108.43 120H125.43C128.743 120 131.43 117.314 131.43 114C131.43 110.686 128.743 108 125.43 108Z" fill="white"/>
<path opacity="0.202241" d="M247 253H230C226.686 253 224 255.686 224 259C224 262.314 226.686 265 230 265H247C250.314 265 253 262.314 253 259C253 255.686 250.314 253 247 253Z" fill="white"/>
<path opacity="0.202241" fill-rule="evenodd" clip-rule="evenodd" d="M340 240.528C338.939 239.578 337.537 239 336 239H280C276.686 239 274 241.686 274 245C274 248.314 276.686 251 280 251H286H303C306.314 251 309 253.686 309 257C309 260.314 306.314 263 303 263H300C296.686 263 294 265.686 294 269C294 272.314 296.686 275 300 275H340V263H334H330C330.701 263 331.374 262.88 332 262.659C329.669 261.835 328 259.613 328 257C328 254.387 329.669 252.165 332 251.341C331.374 251.12 330.701 251 330 251H334H336C337.537 251 338.939 250.422 340 249.472V240.528Z" fill="white"/>
<path opacity="0.202241" fill-rule="evenodd" clip-rule="evenodd" d="M92.3563 0H0V10.006H89.651C92.52 9.88901 94.787 7.487 94.787 4.564C94.787 2.65775 93.8228 0.973511 92.3563 0ZM0 20.897V31.78H14.815C17.763 31.789 20.15 34.223 20.155 37.225C20.146 40.225 17.76 42.653 14.815 42.663H0V53.555H78.961C81.91 53.544 84.297 51.111 84.302 48.108C84.297 45.107 81.91 42.672 78.961 42.663H46.883C43.938 42.653 41.553 40.225 41.543 37.225C41.548 34.223 43.935 31.789 46.883 31.78H57.573C60.523 31.77 62.913 29.338 62.923 26.334C62.913 23.332 60.523 20.902 57.573 20.897H0Z" fill="white"/>
</svg>