<svg preserveAspectRatio="none" viewBox="0 0 700 255" fill="none" xmlns="http://www.w3.org/2000/svg">
<path d="M700 0H0V255H700V0Z" fill="#00A4C7"/>
<path opacity="0.202241" fill-rule="evenodd" clip-rule="evenodd" d="M11.9098 0H0V27.5058C0.051239 27.5046 0.1026 27.5041 0.154083 27.5041H122.821C126.479 27.3552 129.369 24.2917 129.369 20.5631C129.369 16.8346 126.479 13.7711 122.821 13.6222H13.7826C10.0212 13.6101 6.97488 10.5071 6.96289 6.67578C6.97281 3.50604 9.05951 0.834961 11.9098 0ZM0 41.3953V55.2788H27.4111C31.1707 55.291 34.2139 58.3957 34.2199 62.225C34.2079 66.051 31.1665 69.148 27.4111 69.161H0.154083C0.1026 69.161 0.051239 69.1616 0 69.1627V83.0523C0.0440369 83.0533 0.0881653 83.0538 0.132385 83.054H109.193C112.952 83.041 115.996 79.937 116.002 76.107C115.996 72.278 112.952 69.173 109.193 69.161H68.296C64.541 69.148 61.5 66.051 61.488 62.225C61.494 58.3957 64.537 55.291 68.296 55.2788H81.925C85.686 55.2666 88.733 52.1637 88.745 48.3323C88.733 44.5027 85.685 41.403 81.925 41.397H0.154083C0.1026 41.397 0.051239 41.3964 0 41.3953Z" fill="white"/>
<path opacity="0.202241" d="M68.4297 108H25.4297C22.116 108 19.4297 110.686 19.4297 114C19.4297 117.314 22.116 120 25.4297 120H68.4297C71.7434 120 74.4297 117.314 74.4297 114C74.4297 110.686 71.7434 108 68.4297 108Z" fill="white"/>
<path opacity="0.202241" d="M125.43 108H108.43C105.116 108 102.43 110.686 102.43 114C102.43 117.314 105.116 120 108.43 120H125.43C128.743 120 131.43 117.314 131.43 114C131.43 110.686 128.743 108 125.43 108Z" fill="white"/>
<path opacity="0.202241" d="M48.4297 191H31.4297C28.116 191 25.4297 193.686 25.4297 197C25.4297 200.314 28.116 203 31.4297 203H48.4297C51.7434 203 54.4297 200.314 54.4297 197C54.4297 193.686 51.7434 191 48.4297 191Z" fill="white"/>
<path opacity="0.202241" fill-rule="evenodd" clip-rule="evenodd" d="M60.4297 140H116.43C119.743 140 122.43 142.686 122.43 146C122.43 149.314 119.743 152 116.43 152H114.43H110.43C111.131 152 111.804 152.12 112.43 152.341C110.099 153.165 108.43 155.387 108.43 158C108.43 160.613 110.099 162.835 112.43 163.659C111.804 163.88 111.131 164 110.43 164H114.43H131.43C134.743 164 137.43 166.686 137.43 170C137.43 173.314 134.743 176 131.43 176H80.4297C77.116 176 74.4297 173.314 74.4297 170C74.4297 166.686 77.116 164 80.4297 164H83.4297C86.7434 164 89.4297 161.314 89.4297 158C89.4297 154.686 86.7434 152 83.4297 152H66.4297H60.4297C57.116 152 54.4297 149.314 54.4297 146C54.4297 142.686 57.116 140 60.4297 140Z" fill="white"/>
<path opacity="0.202241" fill-rule="evenodd" clip-rule="evenodd" d="M620 124H676C679.314 124 682 126.686 682 130C682 133.314 679.314 136 676 136H674H670C670.701 136 671.374 136.12 672 136.341C669.669 137.165 668 139.387 668 142C668 144.613 669.669 146.835 672 147.659C671.374 147.88 670.701 148 670 148H674H691C694.314 148 697 150.686 697 154C697 157.314 694.314 160 691 160H640C636.686 160 634 157.314 634 154C634 150.686 636.686 148 640 148H643C646.314 148 649 145.314 649 142C649 138.686 646.314 136 643 136H626H620C616.686 136 614 133.314 614 130C614 126.686 616.686 124 620 124Z" fill="white"/>
<path opacity="0.202241" fill-rule="evenodd" clip-rule="evenodd" d="M700 184.946H689.755C685.993 184.959 682.947 188.062 682.935 191.893C682.947 195.724 685.993 198.827 689.755 198.839H700V184.946ZM700 212.721H635.23C631.47 212.709 628.427 209.604 628.421 205.775C628.433 201.949 631.474 198.852 635.23 198.839H662.487C666.257 198.839 669.316 195.733 669.328 191.893C669.316 188.062 666.27 184.959 662.509 184.946H553.448C549.688 184.959 546.645 188.063 546.639 191.893C546.645 195.722 549.688 198.827 553.448 198.839H594.344C598.1 198.852 601.141 201.949 601.153 205.775C601.147 209.604 598.104 212.709 594.344 212.721H580.716C576.955 212.733 573.908 215.836 573.896 219.668C573.908 223.497 576.956 226.597 580.716 226.603H662.487C666.253 226.603 669.306 229.713 669.306 233.549C669.306 237.386 666.253 240.496 662.487 240.496H539.82C536.162 240.645 533.272 243.708 533.272 247.437C533.272 251.165 536.162 254.229 539.82 254.378H648.858C649.859 254.381 650.81 254.603 651.666 255H688.172C689.142 254.447 690.256 254.133 691.44 254.133H700V239.909C697.772 238.813 696.235 236.493 696.235 233.809C696.235 231.125 697.772 228.806 700 227.71V212.721Z" fill="white"/>
</svg>