<svg width="1036" height="340" viewBox="0 0 1036 340" fill="none" xmlns="http://www.w3.org/2000/svg">
<path d="M1036 0H0V340H1036V0Z" fill="#00A4C7"/>
<path opacity="0.202241" fill-rule="evenodd" clip-rule="evenodd" d="M1036 236.12C1033.01 236.703 1030.75 239.338 1030.75 242.5C1030.75 244.816 1031.96 246.849 1033.78 248H1036V236.12ZM1036 262H972.268C970.204 263.125 968.746 265.864 968.739 269.066C968.748 273.265 971.252 276.665 974.344 276.679H1030.35C1033.44 276.685 1035.95 280.082 1035.96 284.279C1035.95 288.478 1033.45 291.879 1030.35 291.892H929.528C926.437 291.879 923.936 288.476 923.931 284.279C923.941 280.087 926.441 276.692 929.528 276.679H951.931C955.03 276.679 957.545 273.274 957.555 269.066C957.545 264.867 955.041 261.466 951.949 261.453H862.307C859.217 261.466 856.716 264.869 856.711 269.066C856.716 273.263 859.217 276.665 862.307 276.679H895.922C899.009 276.692 901.509 280.087 901.518 284.279C901.513 288.476 899.012 291.879 895.922 291.892H884.72C881.628 291.905 879.124 295.306 879.115 299.505C879.124 303.702 881.63 307.099 884.72 307.106H951.931C955.027 307.106 957.537 310.514 957.537 314.718C957.537 318.923 955.027 322.331 951.931 322.331H851.105C848.099 322.494 845.724 325.852 845.724 329.938C845.724 334.024 848.099 337.382 851.105 337.545H940.729C942.355 337.552 943.819 338.496 944.842 340H971.47C972.498 338.333 974.025 337.277 975.729 337.277H1036V262ZM992.25 66H1028.75C1032.34 66 1035.25 63.0898 1035.25 59.5C1035.25 55.9102 1032.34 53 1028.75 53H992.25C988.66 53 985.75 55.9102 985.75 59.5C985.75 63.0898 988.66 66 992.25 66ZM944.51 76.1511H933.825C930.193 76.1511 927.25 73.207 927.25 69.5754C927.25 65.9438 930.193 63 933.825 63H944.51C948.142 63 951.086 65.9438 951.086 69.5754C951.086 73.207 948.142 76.1511 944.51 76.1511ZM956.635 143.151H967.32C970.952 143.151 973.896 140.207 973.896 136.575C973.896 132.944 970.952 130 967.32 130H956.635C953.003 130 950.06 132.944 950.06 136.575C950.06 140.207 953.003 143.151 956.635 143.151ZM940.198 234.113H972.254C975.886 234.113 978.83 231.169 978.83 227.537C978.83 223.906 975.886 220.962 972.254 220.962H940.198C936.567 220.962 933.623 223.906 933.623 227.537C933.623 231.169 936.567 234.113 940.198 234.113ZM979.67 315.003C979.67 319.104 982.125 322.428 985.153 322.428H1007.07C1010.1 322.428 1012.55 319.104 1012.55 315.003C1012.55 310.903 1010.1 307.579 1007.07 307.579H985.153C982.125 307.579 979.67 310.903 979.67 315.003ZM854.25 94H892.25C895.84 94 898.75 91.0898 898.75 87.5C898.75 83.9102 895.84 81 892.25 81H854.25C850.66 81 847.75 83.9102 847.75 87.5C847.75 91.0898 850.66 94 854.25 94ZM1013.75 179H1008C1004.41 179 1001.5 176.09 1001.5 172.5C1001.5 168.91 1004.41 166 1008 166H1013.75C1017.34 166 1020.25 168.91 1020.25 172.5C1020.25 176.09 1017.34 179 1013.75 179ZM893.346 234.113C889.714 234.113 886.771 231.169 886.771 227.537C886.771 223.906 889.714 220.962 893.346 220.962H904.031C907.663 220.962 910.607 223.906 910.607 227.537C910.607 231.169 907.663 234.113 904.031 234.113H893.346ZM900.744 199.043H943.485C947.117 199.043 950.061 196.099 950.061 192.467C950.061 188.836 947.117 185.892 943.485 185.892H938.619L938.553 185.892H927.868H927.836L927.802 185.892H924.646C925.19 185.886 925.719 185.815 926.224 185.685C923.388 184.955 921.292 182.38 921.292 179.316C921.292 176.252 923.388 173.678 926.224 172.948C925.709 172.815 925.169 172.744 924.612 172.741H927.045C930.677 172.741 933.621 169.797 933.621 166.165C933.621 162.534 930.677 159.59 927.045 159.59H888.414C884.782 159.59 881.838 162.534 881.838 166.165C881.838 169.79 884.771 172.729 888.392 172.741H888.415H899.1H899.132H905.644C904.458 172.747 903.347 173.066 902.388 173.621C904.354 174.757 905.676 176.883 905.676 179.316C905.676 181.75 904.354 183.875 902.388 185.012C903.338 185.562 904.437 185.88 905.61 185.892H900.744C897.113 185.892 894.169 188.836 894.169 192.467C894.169 196.099 897.113 199.043 900.744 199.043Z" fill="white"/>
</svg>
