<svg width="1440" height="348" viewBox="0 0 1440 348" fill="none" xmlns="http://www.w3.org/2000/svg">
<rect width="1443" height="348" fill="#00A4C7"/>
<path fill-rule="evenodd" clip-rule="evenodd" d="M1268.78 28.5756C1268.78 32.2072 1265.84 35.1512 1262.21 35.1512H1243.58C1239.94 35.1512 1237 32.2072 1237 28.5756C1237 24.944 1239.94 22 1243.58 22H1262.21C1265.84 22 1268.78 24.944 1268.78 28.5756ZM1096.78 83.5756C1096.78 87.2072 1093.84 90.1512 1090.21 90.1512H1071.58C1067.94 90.1512 1065 87.2072 1065 83.5756C1065 79.944 1067.94 77 1071.58 77H1090.21C1093.84 77 1096.78 79.944 1096.78 83.5756ZM1120.62 157.151C1124.25 157.151 1127.2 154.207 1127.2 150.576C1127.2 146.944 1124.25 144 1120.62 144H1101.99C1098.36 144 1095.41 146.944 1095.41 150.576C1095.41 154.207 1098.36 157.151 1101.99 157.151H1120.62ZM1127.2 248.113C1130.83 248.113 1133.77 245.169 1133.77 241.538C1133.77 237.906 1130.83 234.962 1127.2 234.962H1080.07C1076.44 234.962 1073.5 237.906 1073.5 241.538C1073.5 245.169 1076.44 248.113 1080.07 248.113H1127.2ZM1020.5 108C1024.09 108 1027 105.09 1027 101.5C1027 97.9102 1024.09 95 1020.5 95H965.5C961.91 95 959 97.9102 959 101.5C959 105.09 961.91 108 965.5 108H1020.5ZM1182.5 193C1186.09 193 1189 190.09 1189 186.5C1189 182.91 1186.09 180 1182.5 180H1170.5C1166.91 180 1164 182.91 1164 186.5C1164 190.09 1166.91 193 1170.5 193H1182.5ZM1411 173.5C1411 177.09 1408.09 180 1404.5 180H1392.5C1388.91 180 1386 177.09 1386 173.5C1386 169.91 1388.91 167 1392.5 167H1404.5C1408.09 167 1411 169.91 1411 173.5ZM1202.5 80C1206.09 80 1209 77.0899 1209 73.5C1209 69.9102 1206.09 67 1202.5 67H1149.5C1145.91 67 1143 69.9102 1143 73.5C1143 77.0899 1145.91 80 1149.5 80H1202.5ZM1443 135.978C1441.99 136.625 1440.79 137 1439.5 137H1417.5C1413.91 137 1411 134.09 1411 130.5C1411 126.91 1413.91 124 1417.5 124H1439.5C1440.79 124 1441.99 124.375 1443 125.022V135.978ZM1036.23 248.113C1039.87 248.113 1042.81 245.169 1042.81 241.538C1042.81 237.906 1039.87 234.962 1036.23 234.962H1017.6C1013.97 234.962 1011.03 237.906 1011.03 241.538C1011.03 245.169 1013.97 248.113 1017.6 248.113H1036.23ZM1066.94 186.741C1070.56 186.73 1073.5 183.791 1073.5 180.166C1073.5 176.534 1070.55 173.59 1066.92 173.59H1011.03C1007.4 173.59 1004.45 176.534 1004.45 180.166C1004.45 183.793 1007.39 186.734 1011.01 186.741L1011.03 186.741H1029.66L1029.68 186.741H1034.02C1033.26 186.744 1032.53 186.875 1031.85 187.115C1034.4 188.018 1036.23 190.454 1036.23 193.317C1036.23 196.18 1034.4 198.616 1031.85 199.518C1032.53 199.758 1033.26 199.89 1034.02 199.892H1029.68L1029.66 199.892H1027.45C1023.82 199.903 1020.89 202.843 1020.89 206.468C1020.89 210.1 1023.84 213.044 1027.47 213.044H1088.84C1092.47 213.044 1095.41 210.1 1095.41 206.468C1095.41 202.836 1092.47 199.892 1088.84 199.892H1082.28L1082.26 199.892H1063.63C1060 199.892 1057.06 196.948 1057.06 193.317C1057.06 189.685 1060 186.741 1063.63 186.741H1066.94ZM1361.78 241.523C1365.41 241.523 1368.36 238.579 1368.36 234.948C1368.36 231.316 1365.41 228.372 1361.78 228.372H1343.15C1339.52 228.372 1336.58 231.316 1336.58 234.948C1336.58 238.579 1339.52 241.523 1343.15 241.523H1361.78ZM1306.5 180C1310.09 180 1313 177.09 1313 173.5C1313 169.91 1310.09 167 1306.5 167H1215.5C1211.91 167 1209 169.91 1209 173.5C1209 177.09 1211.91 180 1215.5 180H1250.5C1254.09 180 1257 182.91 1257 186.5C1257 190.09 1254.09 193 1250.5 193H1240.5C1236.91 193 1234 195.91 1234 199.5C1234 203.09 1236.91 206 1240.5 206H1339.5C1343.09 206 1346 203.09 1346 199.5C1346 195.91 1343.09 193 1339.5 193H1329.5H1301.5H1294.5C1290.91 193 1288 190.09 1288 186.5C1288 182.91 1290.91 180 1294.5 180H1301.5H1306.5ZM1287.58 103.523C1283.94 103.523 1281 100.579 1281 96.9476C1281 93.3161 1283.94 90.3721 1287.58 90.3721H1319.63C1323.26 90.3721 1326.2 93.3161 1326.2 96.9476C1326.2 100.579 1323.26 103.523 1319.63 103.523H1287.58ZM1443 29V68H1319.3C1315.71 68 1312.8 65.0899 1312.8 61.5C1312.8 57.9102 1315.71 55 1319.3 55H1333.52H1373.34H1388.79C1392.38 55 1395.29 52.0899 1395.29 48.5C1395.29 44.9102 1392.38 42 1388.79 42H1373.34H1366.23C1362.64 42 1359.73 39.0899 1359.73 35.5C1359.73 31.9102 1362.64 29 1366.23 29H1443ZM1443 348V275.279C1442.75 275.333 1442.49 275.373 1442.23 275.401C1442.5 275.277 1442.75 275.136 1443 274.978V264.022C1441.99 263.375 1440.79 263 1439.5 263H1399.72L1399.7 263H1379.5C1383.09 263 1386 265.91 1386 269.5C1386 273.09 1383.09 276 1379.5 276H1301.5C1297.91 276 1295 273.09 1295 269.5C1295 265.91 1297.91 263 1301.5 263H1306.5H1327.5C1331.09 263 1334 260.09 1334 256.5C1334 252.91 1331.09 250 1327.5 250H1209.5C1205.91 250 1203 252.91 1203 256.5C1203 258.816 1204.21 260.849 1206.03 262H1254C1257.87 262 1261 265.134 1261 269C1261 272.866 1257.87 276 1254 276H1125.02C1122.27 277.125 1120.33 279.863 1120.32 283.066C1120.33 287.265 1123.67 290.665 1127.79 290.679H1202.47C1206.59 290.685 1209.93 294.082 1209.95 298.279C1209.93 302.478 1206.59 305.879 1202.47 305.892H1068.04C1063.92 305.879 1060.58 302.476 1060.57 298.279C1060.59 294.087 1063.92 290.692 1068.04 290.679L1097.91 290.679C1102.04 290.679 1105.39 287.274 1105.41 283.066C1105.39 278.867 1102.05 275.466 1097.93 275.453L978.41 275.453C974.29 275.466 970.954 278.869 970.948 283.066C970.954 287.263 974.29 290.665 978.41 290.679H1023.23C1027.34 290.692 1030.68 294.087 1030.69 298.279C1030.68 302.476 1027.35 305.879 1023.23 305.892H1008.29C1004.17 305.905 1000.83 309.306 1000.82 313.505C1000.83 317.702 1004.17 321.099 1008.29 321.106H1097.91C1102.04 321.106 1105.38 324.514 1105.38 328.718C1105.38 332.923 1102.04 336.331 1097.91 336.331L963.474 336.331C959.466 336.494 956.299 339.852 956.299 343.938C956.299 345.429 956.72 346.823 957.45 348H1443ZM1410.84 304.609C1406.84 304.596 1403.6 301.277 1403.59 297.179C1403.6 293.082 1406.84 289.767 1410.84 289.76H1425.33C1429.32 289.767 1432.56 293.082 1432.58 297.179C1432.56 301.277 1429.33 304.596 1425.33 304.609H1410.84ZM1238.84 297.179C1238.85 301.277 1242.23 304.596 1246.4 304.609H1352.19C1356.36 304.596 1359.73 301.277 1359.75 297.179C1359.73 293.073 1356.34 289.753 1352.16 289.76L1246.4 289.76C1242.23 289.767 1238.85 293.082 1238.84 297.179ZM1359.75 329.003C1359.75 333.104 1363.02 336.428 1367.06 336.428H1396.28C1400.31 336.428 1403.59 333.104 1403.59 329.003C1403.59 324.903 1400.31 321.579 1396.28 321.579H1367.06C1363.02 321.579 1359.75 324.903 1359.75 329.003ZM1218.08 336.428C1213.92 336.428 1210.55 333.104 1210.55 329.003C1210.55 324.903 1213.92 321.579 1218.08 321.579H1308.38C1312.54 321.579 1315.91 324.903 1315.91 329.003C1315.91 333.104 1312.54 336.428 1308.38 336.428L1218.08 336.428ZM1134.89 329.003C1134.89 333.104 1138.17 336.428 1142.2 336.428H1171.42C1175.46 336.428 1178.73 333.104 1178.73 329.003C1178.73 324.903 1175.46 321.579 1171.42 321.579H1142.2C1138.17 321.579 1134.89 324.903 1134.89 329.003Z" fill="white" fill-opacity="0.21"/>
</svg>