<svg width="778" height="445" viewBox="0 0 778 445" fill="none" xmlns="http://www.w3.org/2000/svg">
<path d="M778 0H0V445H778V0Z" fill="#00A4C7"/>
<path opacity="0.202241" fill-rule="evenodd" clip-rule="evenodd" d="M778 340.962H750.698C747.067 340.962 744.123 343.906 744.123 347.537C744.123 351.169 747.067 354.113 750.698 354.113H778V340.962ZM778 411.892H740.028C736.937 411.879 734.436 408.476 734.431 404.279C734.441 400.087 736.941 396.692 740.028 396.679H762.431C765.53 396.679 768.045 393.274 768.055 389.066C768.045 384.867 765.541 381.466 762.449 381.453H672.807C669.717 381.466 667.216 384.869 667.211 389.066C667.216 393.263 669.717 396.665 672.807 396.679H706.422C709.509 396.692 712.009 400.087 712.018 404.279C712.013 408.476 709.512 411.879 706.422 411.892H695.22C692.128 411.905 689.624 415.306 689.615 419.505C689.624 423.702 692.13 427.099 695.22 427.106H762.431C765.527 427.106 768.037 430.514 768.037 434.718C768.037 438.923 765.527 442.331 762.431 442.331H661.605C659.982 442.419 658.543 443.438 657.563 445H778V411.892ZM641.26 413.151H630.575C626.943 413.151 624 410.207 624 406.575C624 402.944 626.943 400 630.575 400H641.26C644.892 400 647.836 402.944 647.836 406.575C647.836 410.207 644.892 413.151 641.26 413.151ZM703.846 354.113H714.531C718.163 354.113 721.107 351.169 721.107 347.537C721.107 343.906 718.163 340.962 714.531 340.962H703.846C700.214 340.962 697.27 343.906 697.27 347.537C697.27 351.169 700.214 354.113 703.846 354.113Z" fill="white"/>
</svg>
