<svg viewBox="0 0 15 15" fill="none" xmlns="http://www.w3.org/2000/svg">
<path d="M2.1668 0.761719C1.13563 0.761719 0.461426 1.43884 0.461426 2.32881C0.461426 3.19914 1.11554 3.89557 2.12723 3.89557H2.1468C3.19814 3.89557 3.85242 3.19914 3.85242 2.32881C3.83277 1.43884 3.19814 0.761719 2.1668 0.761719Z" fill="currentColor"/>
<path d="M0.639526 5.13379H3.65407V14.2032H0.639526V5.13379Z" fill="currentColor"/>
<path d="M11.0532 4.9209C9.42701 4.9209 8.33653 6.44903 8.33653 6.44903V5.13376H5.3219V14.2032H8.33636V9.13846C8.33636 8.86732 8.35601 8.59661 8.43567 8.40271C8.65359 7.86129 9.14952 7.30039 9.98233 7.30039C11.0732 7.30039 11.5094 8.13209 11.5094 9.35132V14.2032H14.5237V9.00293C14.5237 6.2172 13.0364 4.9209 11.0532 4.9209Z" fill="currentColor"/>
</svg>
