<svg viewBox="0 0 136 26" fill="none" xmlns="http://www.w3.org/2000/svg">
<path d="M70.3769 6.21652C69.3097 5.94726 68.2132 5.81123 67.1126 5.81152C63.2448 5.81152 61.1348 7.99852 61.1348 11.6395V24.0284C61.1348 25.3892 61.1348 25.3892 62.6576 25.3892C64.1804 25.3892 64.1237 25.3892 64.1237 24.0284V11.9878C64.1237 9.67117 65.1888 8.74777 67.3151 8.74777C67.9642 8.74198 68.6116 8.81542 69.2429 8.96647C69.5925 9.07406 69.952 9.14598 70.3161 9.18112C70.7009 9.18112 70.7981 8.98267 71.1666 8.07142C71.3252 7.75919 71.4449 7.42867 71.523 7.08727C71.523 6.63367 70.9277 6.38257 70.3769 6.21652Z" fill="currentColor"/>
<path d="M56.635 6.1438C55.1689 6.1438 55.1689 6.1438 55.1689 7.6504V24.0083C55.1689 25.3894 55.1689 25.3894 56.635 25.3894C58.1011 25.3894 58.1376 25.3894 58.1376 24.0083V7.6504C58.1376 6.1438 58.1376 6.1438 56.635 6.1438Z" fill="currentColor"/>
<path d="M56.6351 0.202393C54.8936 0.202393 54.8936 0.202393 54.8936 1.94794C54.8936 3.76639 54.8936 3.76639 56.6351 3.76639C58.3766 3.76639 58.413 3.76639 58.413 1.94794C58.413 0.202393 58.413 0.202393 56.6351 0.202393Z" fill="currentColor"/>
<path fill-rule="evenodd" clip-rule="evenodd" d="M122.906 7.02652C124.684 6.25495 126.597 5.84206 128.535 5.81152C133.379 5.81152 135.983 7.85272 135.983 12.6884V22.5016C135.983 23.2022 135.927 23.3116 135.376 23.7166C134.388 24.4334 131.69 25.7173 127.932 25.7173C123.117 25.7173 120.687 23.2225 120.687 19.5775C120.687 16.2889 123.072 13.6078 127.932 13.6078C129.672 13.6127 131.402 13.872 133.067 14.3773V12.8545C133.067 9.89392 131.674 8.61007 128.535 8.61007C127.072 8.63754 125.627 8.9498 124.283 9.52942C123.994 9.67123 123.685 9.76949 123.368 9.82102C123.092 9.80482 122.926 9.69547 122.558 8.82877C122.364 8.4746 122.234 8.08951 122.173 7.69072C122.173 7.43152 122.339 7.26547 122.906 7.02652ZM128.244 23.0564C129.957 23.0425 131.63 22.5395 133.067 21.6065L133.084 16.9207C131.511 16.4191 129.874 16.1463 128.224 16.1107C125.036 16.1107 123.566 17.597 123.566 19.5653C123.566 21.809 125.125 23.0564 128.244 23.0564Z" fill="currentColor"/>
<path d="M110.743 5.81152C106.928 5.81152 104.304 7.02652 103.243 7.80007C102.8 8.07724 102.557 8.58535 102.619 9.10417V24.0082C102.619 25.3892 102.619 25.3892 104.105 25.3892C105.592 25.3892 105.588 25.3892 105.588 24.0082V10.0397C107.135 9.17993 108.88 8.7375 110.65 8.75587C113.343 8.75587 115.547 10.226 115.547 13.5308V24.0082C115.547 25.3892 115.547 25.3892 117.033 25.3892C118.519 25.3892 118.515 25.3892 118.515 24.0082V13.4053C118.515 8.58982 115.875 5.81152 110.743 5.81152Z" fill="currentColor"/>
<path fill-rule="evenodd" clip-rule="evenodd" d="M86.9137 7.02652C88.6918 6.25455 90.605 5.84163 92.5432 5.81152C97.383 5.81152 99.9871 7.85272 99.9871 12.6884V22.5016C99.9871 23.2022 99.9304 23.3116 99.3837 23.7166C98.3914 24.4334 95.6982 25.7173 91.9357 25.7173C87.1243 25.7173 84.6943 23.2225 84.6943 19.5775C84.6943 16.2889 87.0757 13.6078 91.9357 13.6078C93.6759 13.6122 95.4061 13.8714 97.0711 14.3773V12.8707C97.0711 9.91012 95.6779 8.62627 92.5432 8.62627C91.0807 8.64964 89.6365 8.95635 88.2907 9.52942C88.0021 9.67231 87.6935 9.77062 87.3754 9.82102C87.096 9.80482 86.9299 9.69547 86.5654 8.82877C86.3701 8.4755 86.2398 8.09004 86.1807 7.69072C86.1807 7.43152 86.3427 7.26547 86.9137 7.02652ZM92.2476 23.0564C93.9608 23.0432 95.6345 22.5401 97.0711 21.6065V16.9207C95.5049 16.4206 93.8751 16.1478 92.2314 16.1107C89.04 16.1107 87.5739 17.597 87.5739 19.5653C87.5739 21.809 89.1331 23.0564 92.2476 23.0564Z" fill="currentColor"/>
<path d="M82.5796 22.133C82.3282 22.1509 82.081 22.2069 81.8465 22.2991C80.9463 22.6653 79.9833 22.8524 79.0115 22.8499C76.9865 22.8499 76.1117 21.6025 76.1117 19.7273V8.97459H81.5792C83.0453 8.97459 83.0453 8.97459 83.0453 7.59759C83.0453 6.22059 83.0453 6.14364 81.5792 6.14364H76.1117V3.07779C76.1117 1.49829 76.1117 1.49829 74.593 1.49829C73.0742 1.49829 73.1431 1.49829 73.1431 3.07779V19.618C73.1431 23.0888 74.8319 25.7173 78.7361 25.7173C80.1697 25.7323 81.5915 25.4568 82.9157 24.9073C83.3936 24.7048 83.7055 24.5023 83.7055 24.2107C83.7055 24.0811 83.7055 23.9879 83.3936 23.1982C83.0818 22.4084 82.9643 22.133 82.5796 22.133Z" fill="currentColor"/>
<path d="M51.2085 6.38258C50.8385 6.23031 50.4506 6.12553 50.0543 6.07073C49.706 6.07073 49.5966 6.25298 49.4103 6.86048L43.2138 22.133C43.1571 22.2748 43.1733 22.291 43.149 22.291C43.1247 22.291 43.149 22.291 43.0883 22.133L36.8553 6.88478C36.6528 6.29753 36.5273 6.03833 36.1952 6.03833C35.7936 6.09137 35.3995 6.19058 35.0207 6.33398C34.0122 6.68228 33.8057 6.79163 33.8057 7.08728C33.8693 7.45946 33.9739 7.82347 34.1175 8.17268L40.6988 24.2552C41.1038 25.3771 41.1038 25.3771 43.1288 25.3771C45.1538 25.3771 45.1538 25.3771 45.5831 24.2552L52.1279 8.18888C52.2701 7.86037 52.3682 7.51446 52.4195 7.16018C52.3992 6.86048 52.2453 6.75113 51.2085 6.38258Z" fill="currentColor"/>
<path fill-rule="evenodd" clip-rule="evenodd" d="M25.7057 3.76245L17.2452 24.6199C16.9178 25.1272 16.3545 25.4325 15.7508 25.4299H10.0808C9.51688 25.3952 9.07734 24.9277 9.07734 24.3628C9.07734 23.7978 9.51688 23.3303 10.0808 23.2956H13.0535C13.6574 23.2956 14.147 22.806 14.147 22.2021C14.147 21.5982 13.6574 21.1086 13.0535 21.1086H8.36762C7.95443 21.1335 7.56148 20.9273 7.34734 20.573C7.1332 20.2188 7.1332 19.775 7.34734 19.4207C7.56148 19.0665 7.95443 18.8602 8.36762 18.8851H14.8922C15.4939 18.8851 15.9816 18.3974 15.9816 17.7957C15.9816 17.194 15.4939 16.7062 14.8922 16.7062H9.92687C9.51515 16.7312 9.12359 16.5256 8.9102 16.1727C8.69681 15.8197 8.69681 15.3775 8.9102 15.0245C9.12359 14.6715 9.51515 14.466 9.92687 14.4909H10.7733C11.3503 14.4557 11.8003 13.9775 11.8003 13.3994C11.8003 12.8213 11.3503 12.3431 10.7733 12.3079H4.77527C4.3665 12.3328 3.97771 12.1288 3.76582 11.7783C3.55394 11.4279 3.55394 10.9888 3.76582 10.6384C3.97771 10.288 4.3665 10.084 4.77527 10.1088H14.3454C14.9224 10.0736 15.3724 9.59541 15.3724 9.01732C15.3724 8.43923 14.9224 7.96101 14.3454 7.92585H11.6319C11.2217 7.95071 10.8315 7.74597 10.6189 7.39425C10.4062 7.04254 10.4062 6.6019 10.6189 6.25019C10.8315 5.89848 11.2217 5.69373 11.6319 5.7186H16.1477C16.5535 5.74333 16.9395 5.54087 17.1499 5.19297C17.3603 4.84507 17.3603 4.40917 17.1499 4.06127C16.9395 3.71337 16.5535 3.51092 16.1477 3.53565H14.232C13.6594 3.50062 13.2129 3.02599 13.2129 2.45227C13.2129 1.87856 13.6594 1.40393 14.232 1.3689H24.5595C25.815 1.3851 26.3253 2.3571 25.7057 3.76245ZM8.43855 15.9678C8.43985 15.5809 8.30056 15.2093 8.05147 14.9352C7.80238 14.6612 7.46398 14.5071 7.11107 14.5071H6.77432C6.07107 14.5538 5.52256 15.1927 5.52256 15.9651C5.52256 16.7375 6.07107 17.3764 6.77432 17.4231H7.11107C7.46314 17.4231 7.80079 17.2698 8.04974 16.9968C8.29869 16.7239 8.43855 16.3537 8.43855 15.9678ZM9.32215 6.15484C9.52886 6.42893 9.64445 6.80047 9.64337 7.18737C9.64337 7.99113 9.15017 8.6427 8.54177 8.6427H2.99732C2.41373 8.59597 1.95856 7.95709 1.95856 7.1847C1.95856 6.4123 2.41373 5.77342 2.99732 5.7267H8.54177C8.83464 5.72669 9.11545 5.88076 9.32215 6.15484ZM8.71187 4.29633H10.3319C10.7347 4.32944 11.118 4.05953 11.3269 3.59562C11.5358 3.13171 11.5358 2.55042 11.3269 2.08651C11.118 1.6226 10.7347 1.35269 10.3319 1.38579H8.71187C8.30901 1.35269 7.92574 1.6226 7.71686 2.08651C7.50798 2.55042 7.50798 3.13171 7.71686 3.59562C7.92574 4.05953 8.30901 4.32944 8.71187 4.29633ZM6.43639 1.81316C6.6393 2.08674 6.75275 2.4576 6.75167 2.84378C6.75167 3.646 6.26753 4.29633 5.67032 4.29633H1.18292C0.78006 4.32944 0.396795 4.05953 0.187912 3.59562C-0.0209707 3.13171 -0.0209707 2.55042 0.187912 2.08651C0.396795 1.6226 0.78006 1.35269 1.18292 1.38579H5.67032C5.95782 1.38579 6.23348 1.53957 6.43639 1.81316Z" fill="url(#paint0_linear)"/>
<path d="M70.3769 6.21652C69.3097 5.94726 68.2132 5.81123 67.1126 5.81152C63.2448 5.81152 61.1348 7.99852 61.1348 11.6395V24.0284C61.1348 25.3892 61.1348 25.3892 62.6576 25.3892C64.1804 25.3892 64.1237 25.3892 64.1237 24.0284V11.9878C64.1237 9.67117 65.1888 8.74777 67.3151 8.74777C67.9642 8.74198 68.6116 8.81542 69.2429 8.96647C69.5925 9.07406 69.952 9.14598 70.3161 9.18112C70.7009 9.18112 70.7981 8.98267 71.1666 8.07142C71.3252 7.75919 71.4449 7.42867 71.523 7.08727C71.523 6.63367 70.9277 6.38257 70.3769 6.21652Z" fill="currentColor"/>
<path d="M56.635 6.1438C55.1689 6.1438 55.1689 6.1438 55.1689 7.6504V24.0083C55.1689 25.3894 55.1689 25.3894 56.635 25.3894C58.1011 25.3894 58.1376 25.3894 58.1376 24.0083V7.6504C58.1376 6.1438 58.1376 6.1438 56.635 6.1438Z" fill="currentColor"/>
<path d="M56.6351 0.202393C54.8936 0.202393 54.8936 0.202393 54.8936 1.94794C54.8936 3.76639 54.8936 3.76639 56.6351 3.76639C58.3766 3.76639 58.413 3.76639 58.413 1.94794C58.413 0.202393 58.413 0.202393 56.6351 0.202393Z" fill="currentColor"/>
<path fill-rule="evenodd" clip-rule="evenodd" d="M122.906 7.02652C124.684 6.25495 126.597 5.84206 128.535 5.81152C133.379 5.81152 135.983 7.85272 135.983 12.6884V22.5016C135.983 23.2022 135.927 23.3116 135.376 23.7166C134.388 24.4334 131.69 25.7173 127.932 25.7173C123.117 25.7173 120.687 23.2225 120.687 19.5775C120.687 16.2889 123.072 13.6078 127.932 13.6078C129.672 13.6127 131.402 13.872 133.067 14.3773V12.8545C133.067 9.89392 131.674 8.61007 128.535 8.61007C127.072 8.63754 125.627 8.9498 124.283 9.52942C123.994 9.67123 123.685 9.76949 123.368 9.82102C123.092 9.80482 122.926 9.69547 122.558 8.82877C122.364 8.4746 122.234 8.08951 122.173 7.69072C122.173 7.43152 122.339 7.26547 122.906 7.02652ZM128.244 23.0564C129.957 23.0425 131.63 22.5395 133.067 21.6065L133.084 16.9207C131.511 16.4191 129.874 16.1463 128.224 16.1107C125.036 16.1107 123.566 17.597 123.566 19.5653C123.566 21.809 125.125 23.0564 128.244 23.0564Z" fill="currentColor"/>
<path d="M110.743 5.81152C106.928 5.81152 104.304 7.02652 103.243 7.80007C102.8 8.07724 102.557 8.58535 102.619 9.10417V24.0082C102.619 25.3892 102.619 25.3892 104.105 25.3892C105.592 25.3892 105.588 25.3892 105.588 24.0082V10.0397C107.135 9.17993 108.88 8.7375 110.65 8.75587C113.343 8.75587 115.547 10.226 115.547 13.5308V24.0082C115.547 25.3892 115.547 25.3892 117.033 25.3892C118.519 25.3892 118.515 25.3892 118.515 24.0082V13.4053C118.515 8.58982 115.875 5.81152 110.743 5.81152Z" fill="currentColor"/>
<path fill-rule="evenodd" clip-rule="evenodd" d="M86.9137 7.02652C88.6918 6.25455 90.605 5.84163 92.5432 5.81152C97.383 5.81152 99.9871 7.85272 99.9871 12.6884V22.5016C99.9871 23.2022 99.9304 23.3116 99.3837 23.7166C98.3914 24.4334 95.6982 25.7173 91.9357 25.7173C87.1243 25.7173 84.6943 23.2225 84.6943 19.5775C84.6943 16.2889 87.0757 13.6078 91.9357 13.6078C93.6759 13.6122 95.4061 13.8714 97.0711 14.3773V12.8707C97.0711 9.91012 95.6779 8.62627 92.5432 8.62627C91.0807 8.64964 89.6365 8.95635 88.2907 9.52942C88.0021 9.67231 87.6935 9.77062 87.3754 9.82102C87.096 9.80482 86.9299 9.69547 86.5654 8.82877C86.3701 8.4755 86.2398 8.09004 86.1807 7.69072C86.1807 7.43152 86.3427 7.26547 86.9137 7.02652ZM92.2476 23.0564C93.9608 23.0432 95.6345 22.5401 97.0711 21.6065V16.9207C95.5049 16.4206 93.8751 16.1478 92.2314 16.1107C89.04 16.1107 87.5739 17.597 87.5739 19.5653C87.5739 21.809 89.1331 23.0564 92.2476 23.0564Z" fill="currentColor"/>
<path d="M82.5796 22.133C82.3282 22.1509 82.081 22.2069 81.8465 22.2991C80.9463 22.6653 79.9833 22.8524 79.0115 22.8499C76.9865 22.8499 76.1117 21.6025 76.1117 19.7273V8.97459H81.5792C83.0453 8.97459 83.0453 8.97459 83.0453 7.59759C83.0453 6.22059 83.0453 6.14364 81.5792 6.14364H76.1117V3.07779C76.1117 1.49829 76.1117 1.49829 74.593 1.49829C73.0742 1.49829 73.1431 1.49829 73.1431 3.07779V19.618C73.1431 23.0888 74.8319 25.7173 78.7361 25.7173C80.1697 25.7323 81.5915 25.4568 82.9157 24.9073C83.3936 24.7048 83.7055 24.5023 83.7055 24.2107C83.7055 24.0811 83.7055 23.9879 83.3936 23.1982C83.0818 22.4084 82.9643 22.133 82.5796 22.133Z" fill="currentColor"/>
<path d="M51.2085 6.38258C50.8385 6.23031 50.4506 6.12553 50.0543 6.07073C49.706 6.07073 49.5966 6.25298 49.4103 6.86048L43.2138 22.133C43.1571 22.2748 43.1733 22.291 43.149 22.291C43.1247 22.291 43.149 22.291 43.0883 22.133L36.8553 6.88478C36.6528 6.29753 36.5273 6.03833 36.1952 6.03833C35.7936 6.09137 35.3995 6.19058 35.0207 6.33398C34.0122 6.68228 33.8057 6.79163 33.8057 7.08728C33.8693 7.45946 33.9739 7.82347 34.1175 8.17268L40.6988 24.2552C41.1038 25.3771 41.1038 25.3771 43.1288 25.3771C45.1538 25.3771 45.1538 25.3771 45.5831 24.2552L52.1279 8.18888C52.2701 7.86037 52.3682 7.51446 52.4195 7.16018C52.3992 6.86048 52.2453 6.75113 51.2085 6.38258Z" fill="currentColor"/>
<path fill-rule="evenodd" clip-rule="evenodd" d="M25.7057 3.76245L17.2452 24.6199C16.9178 25.1272 16.3545 25.4325 15.7508 25.4299H10.0808C9.51688 25.3952 9.07734 24.9277 9.07734 24.3628C9.07734 23.7978 9.51688 23.3303 10.0808 23.2956H13.0535C13.6574 23.2956 14.147 22.806 14.147 22.2021C14.147 21.5982 13.6574 21.1086 13.0535 21.1086H8.36762C7.95443 21.1335 7.56148 20.9273 7.34734 20.573C7.1332 20.2188 7.1332 19.775 7.34734 19.4207C7.56148 19.0665 7.95443 18.8602 8.36762 18.8851H14.8922C15.4939 18.8851 15.9816 18.3974 15.9816 17.7957C15.9816 17.194 15.4939 16.7062 14.8922 16.7062H9.92687C9.51515 16.7312 9.12359 16.5256 8.9102 16.1727C8.69681 15.8197 8.69681 15.3775 8.9102 15.0245C9.12359 14.6715 9.51515 14.466 9.92687 14.4909H10.7733C11.3503 14.4557 11.8003 13.9775 11.8003 13.3994C11.8003 12.8213 11.3503 12.3431 10.7733 12.3079H4.77527C4.3665 12.3328 3.97771 12.1288 3.76582 11.7783C3.55394 11.4279 3.55394 10.9888 3.76582 10.6384C3.97771 10.288 4.3665 10.084 4.77527 10.1088H14.3454C14.9224 10.0736 15.3724 9.59541 15.3724 9.01732C15.3724 8.43923 14.9224 7.96101 14.3454 7.92585H11.6319C11.2217 7.95071 10.8315 7.74597 10.6189 7.39425C10.4062 7.04254 10.4062 6.6019 10.6189 6.25019C10.8315 5.89848 11.2217 5.69373 11.6319 5.7186H16.1477C16.5535 5.74333 16.9395 5.54087 17.1499 5.19297C17.3603 4.84507 17.3603 4.40917 17.1499 4.06127C16.9395 3.71337 16.5535 3.51092 16.1477 3.53565H14.232C13.6594 3.50062 13.2129 3.02599 13.2129 2.45227C13.2129 1.87856 13.6594 1.40393 14.232 1.3689H24.5595C25.815 1.3851 26.3253 2.3571 25.7057 3.76245ZM8.43855 15.9678C8.43985 15.5809 8.30056 15.2093 8.05147 14.9352C7.80238 14.6612 7.46398 14.5071 7.11107 14.5071H6.77432C6.07107 14.5538 5.52256 15.1927 5.52256 15.9651C5.52256 16.7375 6.07107 17.3764 6.77432 17.4231H7.11107C7.46314 17.4231 7.80079 17.2698 8.04974 16.9968C8.29869 16.7239 8.43855 16.3537 8.43855 15.9678ZM9.32215 6.15484C9.52886 6.42893 9.64445 6.80047 9.64337 7.18737C9.64337 7.99113 9.15017 8.6427 8.54177 8.6427H2.99732C2.41373 8.59597 1.95856 7.95709 1.95856 7.1847C1.95856 6.4123 2.41373 5.77342 2.99732 5.7267H8.54177C8.83464 5.72669 9.11545 5.88076 9.32215 6.15484ZM8.71187 4.29633H10.3319C10.7347 4.32944 11.118 4.05953 11.3269 3.59562C11.5358 3.13171 11.5358 2.55042 11.3269 2.08651C11.118 1.6226 10.7347 1.35269 10.3319 1.38579H8.71187C8.30901 1.35269 7.92574 1.6226 7.71686 2.08651C7.50798 2.55042 7.50798 3.13171 7.71686 3.59562C7.92574 4.05953 8.30901 4.32944 8.71187 4.29633ZM6.43639 1.81316C6.6393 2.08674 6.75275 2.4576 6.75167 2.84378C6.75167 3.646 6.26753 4.29633 5.67032 4.29633H1.18292C0.78006 4.32944 0.396795 4.05953 0.187912 3.59562C-0.0209707 3.13171 -0.0209707 2.55042 0.187912 2.08651C0.396795 1.6226 0.78006 1.35269 1.18292 1.38579H5.67032C5.95782 1.38579 6.23348 1.53957 6.43639 1.81316Z" fill="url(#paint1_linear)"/>
<defs>
<linearGradient id="paint0_linear" x1="-3.16381" y1="17.726" x2="18.978" y2="27.8842" gradientUnits="userSpaceOnUse">
<stop stop-color="#FFE600"/>
<stop offset="0.25" stop-color="#9DE13E"/>
<stop offset="0.5" stop-color="#47C647"/>
<stop offset="0.87" stop-color="#1E97BC"/>
</linearGradient>
<linearGradient id="paint1_linear" x1="-3.16381" y1="17.726" x2="18.978" y2="27.8842" gradientUnits="userSpaceOnUse">
<stop stop-color="#FFE600"/>
<stop offset="0.5" stop-color="#47C647"/>
<stop offset="0.87" stop-color="#1E97BC"/>
</linearGradient>
</defs>
</svg>
