<svg viewBox="0 0 18 18" fill="none" xmlns="http://www.w3.org/2000/svg">
<path fill-rule="evenodd" clip-rule="evenodd" d="M0.297489 5.46368C1.23274 2.22396 4.19869 -0.00466334 7.56878 7.32749e-06C10.5479 -0.00193521 13.2497 1.74891 14.4664 4.46987C15.6832 7.19084 15.1875 10.3733 13.2008 12.5947L18 17.4011L17.4014 18L12.598 13.1979C10.0866 15.4465 6.39069 15.7596 3.5372 13.9654C0.683712 12.1713 -0.637762 8.70339 0.297489 5.46368ZM0.900001 7.65428C0.902367 11.3814 3.92506 14.4012 7.65214 14.4V14.3893C11.3769 14.3845 14.3953 11.3662 14.4 7.64142C14.3953 3.91434 11.3707 0.896452 7.64357 0.900003C3.91649 0.903554 0.897635 3.9272 0.900001 7.65428Z" fill="currentColor"/>
</svg>
