<svg width="62px" height="52px" viewBox="0 0 67 56" fill="none" xmlns="http://www.w3.org/2000/svg">
<path fill-rule="evenodd" clip-rule="evenodd" d="M16.75 0L38.9998 0C54.4637 0 66.9998 12.536 66.9998 28C66.9998 43.464 54.4637 56 38.9998 56H0L16.75 0Z" fill="#389E38"/>
<path d="M42.7426 30.8978L48.1326 36.2978C48.2951 36.4902 48.3791 36.7369 48.3676 36.9886C48.3561 37.2402 48.2501 37.4783 48.0707 37.6552C47.8913 37.832 47.6518 37.9347 47.4 37.9426C47.1482 37.9505 46.9027 37.863 46.7126 37.6978L41.3326 32.3178C39.7253 33.5663 37.7025 34.1554 35.6762 33.9649C33.6499 33.7744 31.7723 32.8188 30.4258 31.2926C29.0793 29.7664 28.3651 27.7844 28.4287 25.7501C28.4923 23.7159 29.3288 21.7823 30.768 20.3431C32.2071 18.904 34.1407 18.0675 36.1749 18.0039C38.2092 17.9403 40.1912 18.6545 41.7174 20.001C43.2436 21.3475 44.1993 23.225 44.3897 25.2514C44.5802 27.2777 43.9911 29.2905 42.7426 30.8978ZM36.4226 31.9978C38.0139 31.9978 39.54 31.3656 40.6652 30.2404C41.7904 29.1152 42.4226 27.5891 42.4226 25.9978C42.4226 24.4065 41.7904 22.8803 40.6652 21.7551C39.54 20.6299 38.0139 19.9978 36.4226 19.9978C34.8313 19.9978 33.3051 20.6299 32.1799 21.7551C31.0547 22.8803 30.4226 24.4065 30.4226 25.9978C30.4226 27.5891 31.0547 29.1152 32.1799 30.2404C33.3051 31.3656 34.8313 31.9978 36.4226 31.9978Z" fill="white"/>
</svg>
